bicep_curl
version=1
nRows=31
nColumns=17
inDegrees=yes

# SIMM Motion File Header:
name bicep_curl
datacolumns 17
datarows 31
otherdata 1
range 2.44000000 2.52191444
endheader
time	/jointset/r_shoulder/r_shoulder_elev/value	/jointset/r_shoulder/r_shoulder_elev/speed	/jointset/r_elbow/r_elbow_flex/value	/jointset/r_elbow/r_elbow_flex/speed	/forceset/TRIlong/activation	/forceset/TRIlong/fiber_length	/forceset/TRIlat/activation	/forceset/TRIlat/fiber_length	/forceset/TRImed/activation	/forceset/TRImed/fiber_length	/forceset/BIClong/activation	/forceset/BIClong/fiber_length	/forceset/BICshort/activation	/forceset/BICshort/fiber_length	/forceset/BRA/activation	/forceset/BRA/fiber_length
2.44000000	      3.84406325	    -11.87662967	   -157.59154884	     10.01060387	      0.01868977	      0.17839388	      0.07445036	      0.11038427	    372.35520936	      0.10337308	      0.36207032	      0.06440238	     -0.64748433	      0.06728628	    134.96848807	      0.03909050
2.44143079	      3.82683159	    -12.20923994	   -157.57712538	     10.15158435	      0.01884510	      0.17838015	      0.07589773	      0.11036284	    372.11709855	      0.10337012	      0.36201037	      0.06441792	     -0.64896586	      0.06729758	    135.01950975	      0.03909234
2.44390665	      3.79590371	    -12.77162333	   -157.55168297	     10.40109344	      0.01903184	      0.17835538	      0.07772083	      0.11033064	    371.70506992	      0.10336495	      0.36191177	      0.06444516	     -0.65152950	      0.06731744	    135.10779802	      0.03909556
2.44743604	      3.74945801	    -13.54062501	   -157.51436332	     10.74050832	      0.01918401	      0.17831856	      0.07932220	      0.11029443	    371.11771374	      0.10335745	      0.36178181	      0.06448487	     -0.65518404	      0.06734652	    135.23365497	      0.03910026
2.45008638	      3.71283666	    -14.09061759	   -157.48559705	     10.96069182	      0.01924719	      0.17829024	      0.08004577	      0.11027329	    370.67664854	      0.10335168	      0.36169179	      0.06451546	     -0.65792835	      0.06736902	    135.32816511	      0.03910389
2.45273671	      3.67479256	    -14.61366510	   -157.45630517	     11.13504275	      0.01928547	      0.17826059	      0.08051697	      0.11025605	    370.23558335	      0.10334579	      0.36160779	      0.06454677	     -0.66067266	      0.06739209	    135.42267526	      0.03910760
2.45538705	      3.63539736	    -15.11038375	   -157.42662191	     11.25495101	      0.01930866	      0.17823039	      0.08082414	      0.11024178	    369.79451815	      0.10333980	      0.36152941	      0.06457883	     -0.66341697	      0.06741568	    135.51718540	      0.03911138
2.45862553	      3.58552964	    -15.67929747	   -157.39004433	     11.31860592	      0.01932498	      0.17819195	      0.08105852	      0.11022725	    369.25557439	      0.10333235	      0.36144071	      0.06461901	     -0.66677028	      0.06744512	    135.63266867	      0.03911610
2.46000000	      3.56382023	    -15.90890618	   -157.37448607	     11.31743851	      0.01932941	      0.17817555	      0.08112650	      0.11022182	    369.02683697	      0.10332915	      0.36140527	      0.06463638	     -0.66819349	      0.06745778	    135.68168185	      0.03911812
2.46173779	      3.53593121	    -16.18669654	   -157.35481983	     11.31197659	      0.01942790	      0.17815417	      0.08190047	      0.11021482	    368.72835565	      0.10332509	      0.36104450	      0.06465869	     -0.67002680	      0.06747390	    135.74346911	      0.03912069
2.46450559	      3.49054074	    -16.60802801	   -157.32357646	     11.25505022	      0.01953104	      0.17811941	      0.08276167	      0.11020306	    368.25295982	      0.10331859	      0.36050291	      0.06469511	     -0.67294674	      0.06749977	    135.84187864	      0.03912482
2.46898741	      3.41467282	    -17.23642487	   -157.27353555	     11.05473905	      0.01961678	      0.17806179	      0.08355062	      0.11018483	    367.48316660	      0.10330805	      0.35970535	      0.06475598	     -0.67767490	      0.06754192	    136.00123004	      0.03913152
2.47120908	      3.37605578	    -17.52492772	   -157.24912815	     10.91299696	      0.01963885	      0.17803314	      0.08377557	      0.11017659	    367.10157329	      0.10330284	      0.35934343	      0.06478685	     -0.68001870	      0.06756281	    136.08022194	      0.03913483
2.47343076	      3.33681533	    -17.79769533	   -157.22506395	     10.74621504	      0.01965336	      0.17800386	      0.08393320	      0.11016892	    366.71997999	      0.10329767	      0.35900199	      0.06481808	     -0.68236249	      0.06758363	    136.15921383	      0.03913812
2.47734762	      3.26621645	    -18.24389895	   -157.18363018	     10.40025153	      0.01966791	      0.17795177	      0.08410520	      0.11015665	    366.04722203	      0.10328868	      0.35844631	      0.06487380	     -0.68649465	      0.06762003	    136.29847840	      0.03914384
2.48000000	      3.21745425	    -18.52152859	   -157.15639277	     10.13399642	      0.01967314	      0.17791586	      0.08417352	      0.11014911	    365.59165198	      0.10328270	      0.35810106	      0.06491184	     -0.68929282	      0.06764436	    136.39278389	      0.03914765
2.48250855	      3.17068513	    -18.76361965	   -157.13122169	      9.93198382	      0.01967236	      0.17788187	      0.08527951	      0.11014120	    365.15117086	      0.10327715	      0.35710301	      0.06494822	     -0.69201675	      0.06766707	    136.48097902	      0.03915119
2.48607226	      3.10324201	    -19.08123093	   -157.09635700	      9.63370022	      0.01967128	      0.17783281	      0.08625244	      0.11012853	    364.52541368	      0.10326945	      0.35579429	      0.06500076	     -0.69588642	      0.06769882	    136.60627097	      0.03915611
2.48867314	      3.05333110	    -19.29655473	   -157.07158260	      9.41781811	      0.01967053	      0.17779709	      0.08668414	      0.11011946	    364.06871891	      0.10326396	      0.35491384	      0.06503951	     -0.69871061	      0.06772162	    136.69771247	      0.03915961
2.49127403	      3.00287835	    -19.49769925	   -157.04736319	      9.20722076	      0.01966981	      0.17776072	      0.08696959	      0.11011097	    363.61202415	      0.10325859	      0.35409157	      0.06507844	     -0.70153480	      0.06774410	    136.78915397	      0.03916305
2.49387492	      2.95191852	    -19.68681223	   -157.02368151	      9.00467253	      0.01966911	      0.17772443	      0.08715844	      0.11010316	    363.15532939	      0.10325334	      0.35332351	      0.06511744	     -0.70435900	      0.06776627	    136.88059547	      0.03916642
2.49729656	      2.88415769	    -19.91654914	   -156.99330859	      8.75107855	      0.01966822	      0.17767602	      0.08731330	      0.11009385	    362.55451734	      0.10324660	      0.35238949	      0.06516869	     -0.70807441	      0.06779496	    137.00089279	      0.03917074
2.50000000	      2.83008484	    -20.08472083	   -156.96990849	      8.56201072	      0.01966755	      0.17763805	      0.08738824	      0.11008716	    362.07981595	      0.10324141	      0.35170829	      0.06520906	     -0.71100995	      0.06781726	    137.09593966	      0.03917408
2.50226449	      2.78445651	    -20.21349458	   -156.95066972	      8.43151291	      0.01980243	      0.17760539	      0.08834242	      0.11008100	    361.66880205	      0.10323715	      0.35083864	      0.06524286	     -0.71351198	      0.06783571	    137.17558084	      0.03917682
2.50556168	      2.71751403	    -20.38982664	   -156.92315408	      8.26351230	      0.01991955	      0.17755770	      0.08924089	      0.11007077	    361.07034781	      0.10323108	      0.34966114	      0.06529219	     -0.71715504	      0.06786224	    137.29154189	      0.03918073
2.50871580	      2.65295324	    -20.54558700	   -156.89730718	      8.13032103	      0.01998041	      0.17751233	      0.08975621	      0.11006110	    360.49786159	      0.10322540	      0.34862577	      0.06533936	     -0.72064003	      0.06788729	    137.40247117	      0.03918440
2.51186993	      2.58792370	    -20.68596593	   -156.87184045	      8.02141392	      0.02001397	      0.17746630	      0.09006940	      0.11005214	    359.92537536	      0.10321984	      0.34767202	      0.06538642	     -0.72412501	      0.06791209	    137.51340046	      0.03918800
2.51429583	      2.53761978	    -20.78492843	   -156.85246693	      7.95273224	      0.02002913	      0.17743143	      0.09022392	      0.11004583	    359.48506362	      0.10321563	      0.34698982	      0.06542248	     -0.72680539	      0.06793102	    137.59871861	      0.03919073
2.51672174	      2.48708790	    -20.87368745	   -156.83324773	      7.89372438	      0.02003872	      0.17739602	      0.09032936	      0.11003998	    359.04475188	      0.10321147	      0.34634919	      0.06545842	     -0.72948576	      0.06794985	    137.68403676	      0.03919344
2.52000000	      2.41848154	    -20.97879383	   -156.80748372	      7.82640530	      0.02004634	      0.17734829	      0.09042076	      0.11003270	    358.44973338	      0.10320591	      0.34554491	      0.06550676	     -0.73310791	      0.06797519	    137.79933207	      0.03919705
2.52191444	      2.37826949	    -21.03000193	   -156.79252000	      7.80684090	      0.02017856	      0.17731993	      0.09127517	      0.11002803	    358.08989674	      0.10320270	      0.34486230	      0.06553494	     -0.73525837	      0.06798994	    137.86664825	      0.03919915
